<svg xmlns="http://www.w3.org/2000/svg" viewBox="0 0 24 24" fill="#0a66c2">
  <path d="M12 .5C5.65.5.5 5.65.5 12c0 5.1 3.29 9.43 7.86 10.96.57.1.78-.25.78-.55v-2.17c-3.2.7-3.88-1.54-3.88-1.54-.52-1.32-1.28-1.67-1.28-1.67-1.05-.72.08-.71.08-.71 1.16.08 1.77 1.19 1.77 1.19 1.03 1.76 2.7 1.25 3.36.96.1-.75.4-1.25.73-1.54-2.55-.29-5.23-1.28-5.23-5.7 0-1.26.45-2.3 1.18-3.11-.12-.29-.51-1.46.11-3.04 0 0 .96-.31 3.14 1.19A10.9 10.9 0 0112 6.8c.97 0 1.95.13 2.86.38 2.18-1.5 3.14-1.19 3.14-1.19.62 1.58.23 2.75.11 3.04.73.81 1.18 1.85 1.18 3.11 0 4.43-2.69 5.41-5.25 5.69.41.36.77 1.08.77 2.18v3.23c0 .3.21.65.79.54A11.52 11.52 0 0023.5 12C23.5 5.65 18.35.5 12 .5z"/>
</svg>