<svg xmlns="http://www.w3.org/2000/svg" viewBox="0 0 24 24" fill="#25D366">
  <path d="M20.52 3.48A11.91 11.91 0 0012.06 0C5.47 0 .13 5.34.13 11.93c0 2.1.55 4.14 1.6 5.94L0 24l6.29-1.64a11.88 11.88 0 005.77 1.47h.01c6.59 0 11.93-5.34 11.93-11.93 0-3.18-1.24-6.17-3.48-8.42zM12.07 21.3h-.01a9.36 9.36 0 01-4.77-1.3l-.34-.2-3.73.97.99-3.63-.22-.37a9.34 9.34 0 01-1.44-5c0-5.17 4.21-9.38 9.39-9.38 2.51 0 4.87.98 6.64 2.75a9.33 9.33 0 012.75 6.63c0 5.18-4.21 9.39-9.38 9.39zm5.15-7.03c-.28-.14-1.65-.82-1.9-.91-.25-.09-.43-.14-.61.14-.18.28-.7.91-.86 1.09-.16.18-.32.2-.6.07-.28-.14-1.18-.43-2.25-1.37-.83-.74-1.39-1.65-1.55-1.93-.16-.28-.02-.43.12-.57.13-.13.28-.32.42-.48.14-.16.18-.28.28-.46.09-.18.05-.34-.02-.48-.07-.14-.61-1.47-.84-2.02-.22-.53-.45-.46-.61-.47h-.52c-.18 0-.48.07-.73.34-.25.28-.96.94-.96 2.3 0 1.36.99 2.67 1.13 2.86.14.18 1.95 2.98 4.72 4.18.66.29 1.17.46 1.57.59.66.21 1.26.18 1.73.11.53-.08 1.65-.67 1.88-1.32.23-.65.23-1.2.16-1.32-.07-.12-.25-.18-.53-.32z"/>
</svg>